<svg xmlns="http://www.w3.org/2000/svg" viewBox="0 0 32 32" width="32" height="32">
<rect x="21" y="2" width="1" height="1" fill="rgb(60,124,40)" opacity="0.67"/>
<rect x="22" y="2" width="1" height="1" fill="rgb(60,180,40)" opacity="1.00"/>
<rect x="23" y="2" width="1" height="1" fill="rgb(60,149,40)" opacity="0.81"/>
<rect x="19" y="3" width="1" height="1" fill="rgb(60,95,40)" opacity="0.49"/>
<rect x="20" y="3" width="1" height="1" fill="rgb(60,145,40)" opacity="0.79"/>
<rect x="21" y="3" width="1" height="1" fill="rgb(60,172,40)" opacity="0.95"/>
<rect x="22" y="3" width="1" height="1" fill="rgb(60,163,40)" opacity="0.90"/>
<rect x="18" y="4" width="1" height="1" fill="rgb(60,110,40)" opacity="0.58"/>
<rect x="19" y="4" width="1" height="1" fill="rgb(60,141,40)" opacity="0.77"/>
<rect x="20" y="4" width="1" height="1" fill="rgb(60,148,40)" opacity="0.81"/>
<rect x="21" y="4" width="1" height="1" fill="rgb(60,167,40)" opacity="0.92"/>
<rect x="22" y="4" width="1" height="1" fill="rgb(60,102,40)" opacity="0.53"/>
<rect x="18" y="5" width="1" height="1" fill="rgb(60,142,40)" opacity="0.77"/>
<rect x="19" y="5" width="1" height="1" fill="rgb(60,139,40)" opacity="0.75"/>
<rect x="20" y="5" width="1" height="1" fill="rgb(60,141,40)" opacity="0.77"/>
<rect x="21" y="5" width="1" height="1" fill="rgb(60,150,40)" opacity="0.82"/>
<rect x="16" y="6" width="1" height="1" fill="rgb(60,96,40)" opacity="0.49"/>
<rect x="17" y="6" width="1" height="1" fill="rgb(60,133,40)" opacity="0.72"/>
<rect x="18" y="6" width="1" height="1" fill="rgb(60,138,40)" opacity="0.75"/>
<rect x="19" y="6" width="1" height="1" fill="rgb(60,127,40)" opacity="0.68"/>
<rect x="20" y="6" width="1" height="1" fill="rgb(60,144,40)" opacity="0.79"/>
<rect x="21" y="6" width="1" height="1" fill="rgb(60,136,40)" opacity="0.73"/>
<rect x="16" y="7" width="1" height="1" fill="rgb(60,130,40)" opacity="0.70"/>
<rect x="17" y="7" width="1" height="1" fill="rgb(60,127,40)" opacity="0.68"/>
<rect x="18" y="7" width="1" height="1" fill="rgb(60,125,40)" opacity="0.67"/>
<rect x="19" y="7" width="1" height="1" fill="rgb(60,130,40)" opacity="0.70"/>
<rect x="20" y="7" width="1" height="1" fill="rgb(60,143,40)" opacity="0.78"/>
<rect x="21" y="7" width="1" height="1" fill="rgb(60,121,40)" opacity="0.65"/>
<rect x="15" y="8" width="1" height="1" fill="rgb(60,129,40)" opacity="0.69"/>
<rect x="16" y="8" width="1" height="1" fill="rgb(60,123,40)" opacity="0.66"/>
<rect x="17" y="8" width="1" height="1" fill="rgb(60,127,40)" opacity="0.68"/>
<rect x="18" y="8" width="1" height="1" fill="rgb(60,122,40)" opacity="0.65"/>
<rect x="19" y="8" width="1" height="1" fill="rgb(60,128,40)" opacity="0.69"/>
<rect x="20" y="8" width="1" height="1" fill="rgb(60,139,40)" opacity="0.75"/>
<rect x="21" y="8" width="1" height="1" fill="rgb(60,116,40)" opacity="0.62"/>
<rect x="14" y="9" width="1" height="1" fill="rgb(60,121,40)" opacity="0.65"/>
<rect x="15" y="9" width="1" height="1" fill="rgb(60,118,40)" opacity="0.63"/>
<rect x="16" y="9" width="1" height="1" fill="rgb(60,128,40)" opacity="0.69"/>
<rect x="17" y="9" width="1" height="1" fill="rgb(60,117,40)" opacity="0.62"/>
<rect x="18" y="9" width="1" height="1" fill="rgb(60,125,40)" opacity="0.67"/>
<rect x="19" y="9" width="1" height="1" fill="rgb(60,126,40)" opacity="0.67"/>
<rect x="20" y="9" width="1" height="1" fill="rgb(60,134,40)" opacity="0.73"/>
<rect x="21" y="9" width="1" height="1" fill="rgb(60,113,40)" opacity="0.60"/>
<rect x="14" y="10" width="1" height="1" fill="rgb(60,119,40)" opacity="0.63"/>
<rect x="15" y="10" width="1" height="1" fill="rgb(60,126,40)" opacity="0.68"/>
<rect x="16" y="10" width="1" height="1" fill="rgb(60,118,40)" opacity="0.63"/>
<rect x="17" y="10" width="1" height="1" fill="rgb(60,117,40)" opacity="0.62"/>
<rect x="18" y="10" width="1" height="1" fill="rgb(60,119,40)" opacity="0.63"/>
<rect x="19" y="10" width="1" height="1" fill="rgb(60,128,40)" opacity="0.69"/>
<rect x="20" y="10" width="1" height="1" fill="rgb(60,131,40)" opacity="0.71"/>
<rect x="21" y="10" width="1" height="1" fill="rgb(60,115,40)" opacity="0.61"/>
<rect x="13" y="11" width="1" height="1" fill="rgb(60,132,40)" opacity="0.71"/>
<rect x="14" y="11" width="1" height="1" fill="rgb(60,116,40)" opacity="0.61"/>
<rect x="15" y="11" width="1" height="1" fill="rgb(60,121,40)" opacity="0.65"/>
<rect x="16" y="11" width="1" height="1" fill="rgb(60,116,40)" opacity="0.62"/>
<rect x="17" y="11" width="1" height="1" fill="rgb(60,116,40)" opacity="0.61"/>
<rect x="18" y="11" width="1" height="1" fill="rgb(60,112,40)" opacity="0.59"/>
<rect x="19" y="11" width="1" height="1" fill="rgb(60,129,40)" opacity="0.70"/>
<rect x="20" y="11" width="1" height="1" fill="rgb(60,131,40)" opacity="0.71"/>
<rect x="21" y="11" width="1" height="1" fill="rgb(60,96,40)" opacity="0.49"/>
<rect x="13" y="12" width="1" height="1" fill="rgb(60,119,40)" opacity="0.63"/>
<rect x="14" y="12" width="1" height="1" fill="rgb(60,124,40)" opacity="0.66"/>
<rect x="15" y="12" width="1" height="1" fill="rgb(60,116,40)" opacity="0.62"/>
<rect x="16" y="12" width="1" height="1" fill="rgb(60,114,40)" opacity="0.60"/>
<rect x="17" y="12" width="1" height="1" fill="rgb(60,118,40)" opacity="0.63"/>
<rect x="18" y="12" width="1" height="1" fill="rgb(60,119,40)" opacity="0.64"/>
<rect x="19" y="12" width="1" height="1" fill="rgb(60,122,40)" opacity="0.65"/>
<rect x="20" y="12" width="1" height="1" fill="rgb(60,129,40)" opacity="0.69"/>
<rect x="21" y="12" width="1" height="1" fill="rgb(60,118,40)" opacity="0.63"/>
<rect x="12" y="13" width="1" height="1" fill="rgb(60,134,40)" opacity="0.72"/>
<rect x="13" y="13" width="1" height="1" fill="rgb(60,109,40)" opacity="0.57"/>
<rect x="14" y="13" width="1" height="1" fill="rgb(60,116,40)" opacity="0.61"/>
<rect x="15" y="13" width="1" height="1" fill="rgb(60,120,40)" opacity="0.64"/>
<rect x="16" y="13" width="1" height="1" fill="rgb(60,105,40)" opacity="0.55"/>
<rect x="17" y="13" width="1" height="1" fill="rgb(60,108,40)" opacity="0.57"/>
<rect x="18" y="13" width="1" height="1" fill="rgb(60,117,40)" opacity="0.62"/>
<rect x="19" y="13" width="1" height="1" fill="rgb(60,124,40)" opacity="0.67"/>
<rect x="20" y="13" width="1" height="1" fill="rgb(60,123,40)" opacity="0.66"/>
<rect x="21" y="13" width="1" height="1" fill="rgb(60,113,40)" opacity="0.60"/>
<rect x="12" y="14" width="1" height="1" fill="rgb(60,125,40)" opacity="0.67"/>
<rect x="13" y="14" width="1" height="1" fill="rgb(60,119,40)" opacity="0.64"/>
<rect x="14" y="14" width="1" height="1" fill="rgb(60,114,40)" opacity="0.60"/>
<rect x="15" y="14" width="1" height="1" fill="rgb(60,109,40)" opacity="0.57"/>
<rect x="16" y="14" width="1" height="1" fill="rgb(60,111,40)" opacity="0.59"/>
<rect x="17" y="14" width="1" height="1" fill="rgb(60,121,40)" opacity="0.64"/>
<rect x="18" y="14" width="1" height="1" fill="rgb(60,115,40)" opacity="0.61"/>
<rect x="19" y="14" width="1" height="1" fill="rgb(60,120,40)" opacity="0.64"/>
<rect x="20" y="14" width="1" height="1" fill="rgb(60,124,40)" opacity="0.67"/>
<rect x="21" y="14" width="1" height="1" fill="rgb(60,120,40)" opacity="0.64"/>
<rect x="11" y="15" width="1" height="1" fill="rgb(60,124,40)" opacity="0.66"/>
<rect x="12" y="15" width="1" height="1" fill="rgb(60,115,40)" opacity="0.61"/>
<rect x="13" y="15" width="1" height="1" fill="rgb(60,116,40)" opacity="0.62"/>
<rect x="14" y="15" width="1" height="1" fill="rgb(60,119,40)" opacity="0.64"/>
<rect x="15" y="15" width="1" height="1" fill="rgb(60,109,40)" opacity="0.57"/>
<rect x="16" y="15" width="1" height="1" fill="rgb(60,114,40)" opacity="0.61"/>
<rect x="17" y="15" width="1" height="1" fill="rgb(60,100,40)" opacity="0.52"/>
<rect x="18" y="15" width="1" height="1" fill="rgb(60,115,40)" opacity="0.61"/>
<rect x="19" y="15" width="1" height="1" fill="rgb(60,122,40)" opacity="0.65"/>
<rect x="20" y="15" width="1" height="1" fill="rgb(60,124,40)" opacity="0.66"/>
<rect x="21" y="15" width="1" height="1" fill="rgb(60,111,40)" opacity="0.58"/>
<rect x="11" y="16" width="1" height="1" fill="rgb(60,133,40)" opacity="0.72"/>
<rect x="12" y="16" width="1" height="1" fill="rgb(60,106,40)" opacity="0.56"/>
<rect x="13" y="16" width="1" height="1" fill="rgb(60,112,40)" opacity="0.59"/>
<rect x="14" y="16" width="1" height="1" fill="rgb(60,110,40)" opacity="0.58"/>
<rect x="15" y="16" width="1" height="1" fill="rgb(60,111,40)" opacity="0.59"/>
<rect x="16" y="16" width="1" height="1" fill="rgb(60,110,40)" opacity="0.58"/>
<rect x="17" y="16" width="1" height="1" fill="rgb(60,113,40)" opacity="0.60"/>
<rect x="18" y="16" width="1" height="1" fill="rgb(60,113,40)" opacity="0.60"/>
<rect x="19" y="16" width="1" height="1" fill="rgb(60,117,40)" opacity="0.62"/>
<rect x="20" y="16" width="1" height="1" fill="rgb(60,113,40)" opacity="0.60"/>
<rect x="21" y="16" width="1" height="1" fill="rgb(60,132,40)" opacity="0.71"/>
<rect x="11" y="17" width="1" height="1" fill="rgb(60,123,40)" opacity="0.66"/>
<rect x="12" y="17" width="1" height="1" fill="rgb(60,116,40)" opacity="0.62"/>
<rect x="13" y="17" width="1" height="1" fill="rgb(60,115,40)" opacity="0.61"/>
<rect x="14" y="17" width="1" height="1" fill="rgb(60,106,40)" opacity="0.56"/>
<rect x="15" y="17" width="1" height="1" fill="rgb(60,109,40)" opacity="0.57"/>
<rect x="16" y="17" width="1" height="1" fill="rgb(60,116,40)" opacity="0.61"/>
<rect x="17" y="17" width="1" height="1" fill="rgb(60,109,40)" opacity="0.58"/>
<rect x="18" y="17" width="1" height="1" fill="rgb(60,109,40)" opacity="0.57"/>
<rect x="19" y="17" width="1" height="1" fill="rgb(60,117,40)" opacity="0.62"/>
<rect x="20" y="17" width="1" height="1" fill="rgb(60,125,40)" opacity="0.67"/>
<rect x="21" y="17" width="1" height="1" fill="rgb(60,107,40)" opacity="0.56"/>
<rect x="9" y="18" width="1" height="1" fill="rgb(60,123,40)" opacity="0.66"/>
<rect x="10" y="18" width="1" height="1" fill="rgb(60,102,40)" opacity="0.53"/>
<rect x="11" y="18" width="1" height="1" fill="rgb(60,115,40)" opacity="0.61"/>
<rect x="12" y="18" width="1" height="1" fill="rgb(60,110,40)" opacity="0.58"/>
<rect x="13" y="18" width="1" height="1" fill="rgb(60,117,40)" opacity="0.62"/>
<rect x="14" y="18" width="1" height="1" fill="rgb(60,110,40)" opacity="0.58"/>
<rect x="15" y="18" width="1" height="1" fill="rgb(60,100,40)" opacity="0.52"/>
<rect x="16" y="18" width="1" height="1" fill="rgb(60,107,40)" opacity="0.56"/>
<rect x="17" y="18" width="1" height="1" fill="rgb(60,102,40)" opacity="0.53"/>
<rect x="18" y="18" width="1" height="1" fill="rgb(60,117,40)" opacity="0.62"/>
<rect x="19" y="18" width="1" height="1" fill="rgb(60,113,40)" opacity="0.60"/>
<rect x="20" y="18" width="1" height="1" fill="rgb(60,115,40)" opacity="0.61"/>
<rect x="21" y="18" width="1" height="1" fill="rgb(60,123,40)" opacity="0.66"/>
<rect x="22" y="18" width="1" height="1" fill="rgb(60,112,40)" opacity="0.59"/>
<rect x="9" y="19" width="1" height="1" fill="rgb(60,113,40)" opacity="0.60"/>
<rect x="10" y="19" width="1" height="1" fill="rgb(60,122,40)" opacity="0.65"/>
<rect x="11" y="19" width="1" height="1" fill="rgb(60,105,40)" opacity="0.55"/>
<rect x="12" y="19" width="1" height="1" fill="rgb(60,109,40)" opacity="0.57"/>
<rect x="13" y="19" width="1" height="1" fill="rgb(60,105,40)" opacity="0.55"/>
<rect x="14" y="19" width="1" height="1" fill="rgb(60,109,40)" opacity="0.58"/>
<rect x="15" y="19" width="1" height="1" fill="rgb(60,105,40)" opacity="0.55"/>
<rect x="16" y="19" width="1" height="1" fill="rgb(60,114,40)" opacity="0.61"/>
<rect x="17" y="19" width="1" height="1" fill="rgb(60,113,40)" opacity="0.60"/>
<rect x="18" y="19" width="1" height="1" fill="rgb(60,111,40)" opacity="0.59"/>
<rect x="19" y="19" width="1" height="1" fill="rgb(60,112,40)" opacity="0.59"/>
<rect x="20" y="19" width="1" height="1" fill="rgb(60,109,40)" opacity="0.57"/>
<rect x="21" y="19" width="1" height="1" fill="rgb(60,130,40)" opacity="0.70"/>
<rect x="22" y="19" width="1" height="1" fill="rgb(60,89,40)" opacity="0.45"/>
<rect x="9" y="20" width="1" height="1" fill="rgb(60,105,40)" opacity="0.55"/>
<rect x="10" y="20" width="1" height="1" fill="rgb(60,121,40)" opacity="0.65"/>
<rect x="11" y="20" width="1" height="1" fill="rgb(60,112,40)" opacity="0.59"/>
<rect x="12" y="20" width="1" height="1" fill="rgb(60,111,40)" opacity="0.59"/>
<rect x="13" y="20" width="1" height="1" fill="rgb(60,105,40)" opacity="0.55"/>
<rect x="14" y="20" width="1" height="1" fill="rgb(60,102,40)" opacity="0.53"/>
<rect x="15" y="20" width="1" height="1" fill="rgb(60,106,40)" opacity="0.56"/>
<rect x="16" y="20" width="1" height="1" fill="rgb(60,116,40)" opacity="0.61"/>
<rect x="17" y="20" width="1" height="1" fill="rgb(60,106,40)" opacity="0.55"/>
<rect x="18" y="20" width="1" height="1" fill="rgb(60,105,40)" opacity="0.55"/>
<rect x="19" y="20" width="1" height="1" fill="rgb(60,117,40)" opacity="0.62"/>
<rect x="20" y="20" width="1" height="1" fill="rgb(60,119,40)" opacity="0.63"/>
<rect x="21" y="20" width="1" height="1" fill="rgb(60,116,40)" opacity="0.61"/>
<rect x="22" y="20" width="1" height="1" fill="rgb(60,103,40)" opacity="0.54"/>
<rect x="9" y="21" width="1" height="1" fill="rgb(60,91,40)" opacity="0.47"/>
<rect x="10" y="21" width="1" height="1" fill="rgb(60,117,40)" opacity="0.62"/>
<rect x="11" y="21" width="1" height="1" fill="rgb(60,110,40)" opacity="0.58"/>
<rect x="12" y="21" width="1" height="1" fill="rgb(60,118,40)" opacity="0.63"/>
<rect x="13" y="21" width="1" height="1" fill="rgb(60,108,40)" opacity="0.57"/>
<rect x="14" y="21" width="1" height="1" fill="rgb(60,102,40)" opacity="0.53"/>
<rect x="15" y="21" width="1" height="1" fill="rgb(60,99,40)" opacity="0.52"/>
<rect x="16" y="21" width="1" height="1" fill="rgb(60,106,40)" opacity="0.56"/>
<rect x="17" y="21" width="1" height="1" fill="rgb(60,102,40)" opacity="0.53"/>
<rect x="18" y="21" width="1" height="1" fill="rgb(60,116,40)" opacity="0.61"/>
<rect x="19" y="21" width="1" height="1" fill="rgb(60,111,40)" opacity="0.58"/>
<rect x="20" y="21" width="1" height="1" fill="rgb(60,113,40)" opacity="0.60"/>
<rect x="21" y="21" width="1" height="1" fill="rgb(60,99,40)" opacity="0.51"/>
<rect x="22" y="21" width="1" height="1" fill="rgb(60,133,40)" opacity="0.72"/>
<rect x="10" y="22" width="1" height="1" fill="rgb(60,111,40)" opacity="0.58"/>
<rect x="11" y="22" width="1" height="1" fill="rgb(60,107,40)" opacity="0.56"/>
<rect x="12" y="22" width="1" height="1" fill="rgb(60,105,40)" opacity="0.55"/>
<rect x="13" y="22" width="1" height="1" fill="rgb(60,111,40)" opacity="0.59"/>
<rect x="14" y="22" width="1" height="1" fill="rgb(60,103,40)" opacity="0.54"/>
<rect x="15" y="22" width="1" height="1" fill="rgb(60,100,40)" opacity="0.52"/>
<rect x="16" y="22" width="1" height="1" fill="rgb(60,107,40)" opacity="0.56"/>
<rect x="17" y="22" width="1" height="1" fill="rgb(60,113,40)" opacity="0.60"/>
<rect x="18" y="22" width="1" height="1" fill="rgb(60,108,40)" opacity="0.57"/>
<rect x="19" y="22" width="1" height="1" fill="rgb(60,112,40)" opacity="0.59"/>
<rect x="20" y="22" width="1" height="1" fill="rgb(60,109,40)" opacity="0.57"/>
<rect x="21" y="22" width="1" height="1" fill="rgb(60,117,40)" opacity="0.62"/>
<rect x="22" y="22" width="1" height="1" fill="rgb(60,121,40)" opacity="0.65"/>
<rect x="10" y="23" width="1" height="1" fill="rgb(60,101,40)" opacity="0.52"/>
<rect x="11" y="23" width="1" height="1" fill="rgb(60,107,40)" opacity="0.56"/>
<rect x="12" y="23" width="1" height="1" fill="rgb(60,103,40)" opacity="0.54"/>
<rect x="13" y="23" width="1" height="1" fill="rgb(60,104,40)" opacity="0.55"/>
<rect x="14" y="23" width="1" height="1" fill="rgb(60,106,40)" opacity="0.56"/>
<rect x="15" y="23" width="1" height="1" fill="rgb(60,115,40)" opacity="0.61"/>
<rect x="16" y="23" width="1" height="1" fill="rgb(60,103,40)" opacity="0.54"/>
<rect x="17" y="23" width="1" height="1" fill="rgb(60,105,40)" opacity="0.55"/>
<rect x="18" y="23" width="1" height="1" fill="rgb(60,104,40)" opacity="0.54"/>
<rect x="19" y="23" width="1" height="1" fill="rgb(60,104,40)" opacity="0.54"/>
<rect x="20" y="23" width="1" height="1" fill="rgb(60,116,40)" opacity="0.62"/>
<rect x="21" y="23" width="1" height="1" fill="rgb(60,119,40)" opacity="0.64"/>
<rect x="22" y="23" width="1" height="1" fill="rgb(60,106,40)" opacity="0.55"/>
<rect x="10" y="24" width="1" height="1" fill="rgb(60,83,40)" opacity="0.42"/>
<rect x="11" y="24" width="1" height="1" fill="rgb(60,109,40)" opacity="0.58"/>
<rect x="12" y="24" width="1" height="1" fill="rgb(60,106,40)" opacity="0.55"/>
<rect x="13" y="24" width="1" height="1" fill="rgb(60,100,40)" opacity="0.52"/>
<rect x="14" y="24" width="1" height="1" fill="rgb(60,105,40)" opacity="0.55"/>
<rect x="15" y="24" width="1" height="1" fill="rgb(60,116,40)" opacity="0.62"/>
<rect x="16" y="24" width="1" height="1" fill="rgb(60,99,40)" opacity="0.51"/>
<rect x="17" y="24" width="1" height="1" fill="rgb(60,103,40)" opacity="0.54"/>
<rect x="18" y="24" width="1" height="1" fill="rgb(60,111,40)" opacity="0.59"/>
<rect x="19" y="24" width="1" height="1" fill="rgb(60,117,40)" opacity="0.62"/>
<rect x="20" y="24" width="1" height="1" fill="rgb(60,109,40)" opacity="0.57"/>
<rect x="21" y="24" width="1" height="1" fill="rgb(60,115,40)" opacity="0.61"/>
<rect x="22" y="24" width="1" height="1" fill="rgb(60,91,40)" opacity="0.46"/>
<rect x="11" y="25" width="1" height="1" fill="rgb(60,94,40)" opacity="0.49"/>
<rect x="12" y="25" width="1" height="1" fill="rgb(60,101,40)" opacity="0.53"/>
<rect x="13" y="25" width="1" height="1" fill="rgb(60,101,40)" opacity="0.53"/>
<rect x="14" y="25" width="1" height="1" fill="rgb(60,95,40)" opacity="0.49"/>
<rect x="15" y="25" width="1" height="1" fill="rgb(60,106,40)" opacity="0.56"/>
<rect x="16" y="25" width="1" height="1" fill="rgb(60,87,40)" opacity="0.44"/>
<rect x="17" y="25" width="1" height="1" fill="rgb(60,103,40)" opacity="0.54"/>
<rect x="18" y="25" width="1" height="1" fill="rgb(60,112,40)" opacity="0.59"/>
<rect x="19" y="25" width="1" height="1" fill="rgb(60,105,40)" opacity="0.55"/>
<rect x="20" y="25" width="1" height="1" fill="rgb(60,107,40)" opacity="0.56"/>
<rect x="21" y="25" width="1" height="1" fill="rgb(60,106,40)" opacity="0.56"/>
<rect x="15" y="26" width="1" height="1" fill="rgb(60,111,40)" opacity="0.58"/>
<rect x="16" y="26" width="1" height="1" fill="rgb(60,97,40)" opacity="0.50"/>
<rect x="17" y="26" width="1" height="1" fill="rgb(60,109,40)" opacity="0.57"/>
<rect x="18" y="26" width="1" height="1" fill="rgb(60,106,40)" opacity="0.56"/>
<rect x="19" y="26" width="1" height="1" fill="rgb(60,106,40)" opacity="0.56"/>
<rect x="20" y="26" width="1" height="1" fill="rgb(60,109,40)" opacity="0.57"/>
<rect x="21" y="26" width="1" height="1" fill="rgb(60,95,40)" opacity="0.49"/>
<rect x="15" y="27" width="1" height="1" fill="rgb(60,109,40)" opacity="0.57"/>
<rect x="16" y="27" width="1" height="1" fill="rgb(60,102,40)" opacity="0.53"/>
<rect x="17" y="27" width="1" height="1" fill="rgb(60,104,40)" opacity="0.54"/>
<rect x="18" y="27" width="1" height="1" fill="rgb(60,99,40)" opacity="0.52"/>
<rect x="19" y="27" width="1" height="1" fill="rgb(60,101,40)" opacity="0.53"/>
<rect x="20" y="27" width="1" height="1" fill="rgb(60,103,40)" opacity="0.54"/>
<rect x="15" y="28" width="1" height="1" fill="rgb(60,109,40)" opacity="0.58"/>
<rect x="16" y="28" width="1" height="1" fill="rgb(60,97,40)" opacity="0.50"/>
<rect x="17" y="28" width="1" height="1" fill="rgb(60,99,40)" opacity="0.51"/>
<rect x="18" y="28" width="1" height="1" fill="rgb(60,103,40)" opacity="0.54"/>
<rect x="19" y="28" width="1" height="1" fill="rgb(60,107,40)" opacity="0.56"/>
<rect x="20" y="28" width="1" height="1" fill="rgb(60,92,40)" opacity="0.47"/>
<rect x="15" y="29" width="1" height="1" fill="rgb(60,106,40)" opacity="0.56"/>
<rect x="16" y="29" width="1" height="1" fill="rgb(60,91,40)" opacity="0.46"/>
<rect x="17" y="29" width="1" height="1" fill="rgb(60,88,40)" opacity="0.45"/>
<rect x="18" y="29" width="1" height="1" fill="rgb(60,90,40)" opacity="0.46"/>
<rect x="15" y="30" width="1" height="1" fill="rgb(60,91,40)" opacity="0.46"/>
</svg>